<?xml version="1.0" encoding="utf-8"?>
<!-- Generator: Adobe Illustrator 23.0.0, SVG Export Plug-In . SVG Version: 6.00 Build 0)  -->
<svg version="1.1" id="Laag_1" xmlns="http://www.w3.org/2000/svg" xmlns:xlink="http://www.w3.org/1999/xlink" x="0px" y="0px"
	 viewBox="0 0 600 600" xml:space="preserve">
<g>
	<path class="fill-white" d="M299,557.3c-2.7-0.4-5.5-0.7-8.2-1.2c-17.8-3.7-28.4-15.2-34-32c-3.6-10.9-3.9-22.1-3.4-33.4c0.9-23.3,6.1-45.7,13.2-67.8
		c4.8-15,9.9-29.8,14.4-44.9c4.6-15.8,6.6-32.1,7.6-48.5c0.1-2.4,0.3-4.9,0.5-7.8c-1.8,1.2-3.2,2.1-4.5,3
		c-15.6,10.2-30.4,21.5-43.3,35.2c-10.3,11-20.2,22.5-30.4,33.6c-17.2,18.9-36.2,35.7-58.5,48.4c-10.7,6-21.9,10.2-34.3,10.1
		c-19.7-0.2-33.2-10.3-41.2-27.8c-8.1-17.6-4.6-33.8,7.5-48.4c8.1-9.8,18.8-16.2,30-21.9c20.9-10.8,43.2-17.2,66.1-22.2
		c16.9-3.7,33.9-7.2,50.7-11.6c15.7-4.1,30.3-11.3,44.8-18.6c0.2-0.1,0.4-0.3,0.8-0.6c-0.8-0.5-1.4-0.9-2.1-1.2
		c-24.5-12.8-50.5-21.3-77.8-26.2c-19.7-3.5-39.1-7.9-58-14.8c-14.4-5.3-28.3-11.5-40.9-20.3c-10.4-7.2-18.9-16.2-23-28.4
		c-5.7-16.7-1.2-31.6,9.5-44.7c10.8-13.1,25.1-17.2,41.5-14.9c12.5,1.8,23.5,7.5,34,14.1c19.7,12.4,36.5,28,52,45.1
		c11,12.1,21.8,24.5,33.1,36.3c12.6,13.2,27.5,23.6,42.7,33.6c0.2,0.1,0.4,0.2,1,0.4c-0.1-1.6-0.2-2.9-0.3-4.3
		c-1-29.9-8.7-58.3-18.7-86.3c-6.1-17-11.1-34.4-13.9-52.3c-2.4-15.4-4-30.8-2.1-46.3c1.7-13.8,6.5-26.2,17.3-35.6
		c8.6-7.5,18.9-10.4,30.2-10.3c12.1,0.1,22.8,3.7,31.5,12.4c7.7,7.6,11.9,17.1,14,27.6c2.6,12.4,1.9,25,0.8,37.5
		c-2.3,26.2-10.2,51-18.7,75.6c-5.2,15.1-10.2,30.3-12.5,46.2c-1.7,11.8-2.8,23.6-4.1,35.4c0.2,0.1,0.5,0.2,0.7,0.4
		c0.8-0.5,1.5-1,2.3-1.5c24-15.1,44.4-34.1,62.7-55.7c13.1-15.5,27-30.4,42.9-43.2c11.5-9.3,23.5-17.8,37-23.9
		c9.5-4.3,19.5-6.7,30-5.7c14.8,1.4,25.8,8.7,33.6,21.2c12.3,19.7,9.6,41.3-6.8,58c-9.2,9.4-20.6,15.6-32.2,21.3
		c-20.9,10.1-43.1,16-65.6,20.7c-16.6,3.4-33.3,6.3-49.4,11.5c-14.3,4.6-27.8,10.9-41.2,17.5c-0.3,0.2-0.6,0.4-1.3,0.8
		c1.5,0.7,2.7,1.3,3.8,1.9c24,12.6,49.6,20.6,76.3,25.4c19.6,3.6,39.2,7.9,58,14.8c15,5.6,29.6,12.1,42.6,21.6
		c10,7.3,17.9,16.3,21.6,28.3c5,16.1,0.7,30.4-9.6,43c-11.7,14.4-27.2,18.2-44.8,14.9c-12.8-2.4-23.9-8.8-34.6-15.9
		c-18.3-12-34-26.8-48.6-42.9c-11.1-12.2-21.9-24.6-33.3-36.5c-12.5-13-27.3-23.4-42.4-33.2c-0.2-0.2-0.5-0.2-1.1-0.5
		c0.3,3.7,0.6,7.1,0.7,10.5c1.3,27.2,8.7,53,17.7,78.5c6.2,17.6,11.5,35.4,14.5,53.8c2.5,15.4,4,30.8,2.2,46.3
		c-1.3,11.5-5,22.1-12.7,31c-7.8,9.1-17.8,13.7-29.7,14.7c-0.9,0.1-1.8,0.3-2.8,0.5C301.6,557.3,300.3,557.3,299,557.3z"/>
</g>
</svg>
